<svg width="307" height="51" viewBox="0 0 307 51" fill="none" xmlns="http://www.w3.org/2000/svg">
<path d="M4 9H16C18.1217 9 20.1566 9.84285 21.6569 11.3431C23.1571 12.8434 24 14.8783 24 17V45C24 43.4087 23.3679 41.8826 22.2426 40.7574C21.1174 39.6321 19.5913 39 18 39H4V9Z" stroke="#BEBEBE" stroke-width="4" stroke-linecap="round" stroke-linejoin="round"/>
<path d="M44 9H32C29.8783 9 27.8434 9.84285 26.3431 11.3431C24.8429 12.8434 24 14.8783 24 17V45C24 43.4087 24.6321 41.8826 25.7574 40.7574C26.8826 39.6321 28.4087 39 30 39H44V9Z" stroke="#BEBEBE" stroke-width="4" stroke-linecap="round" stroke-linejoin="round"/>
<path d="M79.8519 17.7937C79.7411 16.6765 79.2656 15.8086 78.4254 15.19C77.5852 14.5714 76.445 14.2621 75.0046 14.2621C74.0259 14.2621 73.1996 14.4006 72.5256 14.6776C71.8516 14.9453 71.3345 15.3192 70.9744 15.7994C70.6236 16.2795 70.4482 16.8242 70.4482 17.4336C70.4297 17.9414 70.5359 18.3846 70.7667 18.7631C71.0067 19.1417 71.3345 19.4695 71.75 19.7464C72.1655 20.0142 72.6456 20.2496 73.1903 20.4528C73.7351 20.6467 74.3168 20.8129 74.9354 20.9513L77.4837 21.5607C78.7209 21.8377 79.8565 22.207 80.8906 22.6687C81.9247 23.1303 82.8203 23.6982 83.5774 24.3722C84.3345 25.0462 84.9208 25.8402 85.3363 26.7543C85.761 27.6683 85.978 28.7163 85.9872 29.8981C85.978 31.6339 85.5348 33.1388 84.6577 34.413C83.7898 35.6779 82.5341 36.6612 80.8906 37.3629C79.2564 38.0554 77.2852 38.4016 74.9769 38.4016C72.6871 38.4016 70.6928 38.0508 68.994 37.3491C67.3043 36.6474 65.984 35.6087 65.033 34.233C64.0913 32.848 63.5973 31.1353 63.5511 29.0948H69.354C69.4187 30.0458 69.6911 30.8398 70.1712 31.4769C70.6605 32.1048 71.3114 32.5803 72.1239 32.9034C72.9457 33.2173 73.8736 33.3743 74.9077 33.3743C75.9233 33.3743 76.805 33.2266 77.5529 32.9311C78.31 32.6357 78.8963 32.2248 79.3118 31.6985C79.7273 31.1722 79.935 30.5675 79.935 29.8842C79.935 29.2472 79.7457 28.7116 79.3672 28.2777C78.9979 27.8437 78.4531 27.4744 77.733 27.1697C77.022 26.8651 76.1495 26.5881 75.1154 26.3388L72.027 25.5632C69.6357 24.9815 67.7475 24.0721 66.3626 22.8349C64.9776 21.5977 64.2898 19.9311 64.299 17.8352C64.2898 16.1179 64.7468 14.6175 65.6701 13.3342C66.6026 12.0508 67.8814 11.049 69.5064 10.3288C71.1314 9.60866 72.978 9.24858 75.0462 9.24858C77.1513 9.24858 78.9886 9.60866 80.5582 10.3288C82.1371 11.049 83.3651 12.0508 84.2422 13.3342C85.1193 14.6175 85.5717 16.104 85.5994 17.7937H79.8519ZM101.225 16.7273V21.1591H88.4143V16.7273H101.225ZM91.3227 11.6307H97.2226V31.4631C97.2226 32.0078 97.3057 32.4325 97.4719 32.7372C97.6381 33.0327 97.8689 33.2404 98.1643 33.3604C98.469 33.4805 98.8199 33.5405 99.2169 33.5405C99.4939 33.5405 99.7709 33.5174 100.048 33.4712C100.325 33.4158 100.537 33.3743 100.685 33.3466L101.613 37.7369C101.317 37.8292 100.902 37.9354 100.366 38.0554C99.8309 38.1847 99.18 38.2631 98.4136 38.2908C96.9917 38.3462 95.7453 38.157 94.6743 37.723C93.6125 37.2891 92.7861 36.6151 92.1952 35.701C91.6043 34.7869 91.3135 33.6328 91.3227 32.2386V11.6307ZM118.71 28.9425V16.7273H124.61V38H118.945V34.136H118.724C118.244 35.3825 117.445 36.3842 116.328 37.1413C115.22 37.8984 113.867 38.277 112.27 38.277C110.848 38.277 109.597 37.9538 108.517 37.3075C107.437 36.6612 106.592 35.7425 105.982 34.5515C105.382 33.3604 105.078 31.9339 105.068 30.272V16.7273H110.968V29.2195C110.977 30.4751 111.314 31.4677 111.979 32.1971C112.644 32.9265 113.535 33.2912 114.652 33.2912C115.363 33.2912 116.028 33.1296 116.646 32.8065C117.265 32.4741 117.764 31.9847 118.142 31.3384C118.53 30.6921 118.719 29.8935 118.71 28.9425ZM137.168 38.3462C135.552 38.3462 134.089 37.9308 132.778 37.0998C131.476 36.2596 130.442 35.027 129.675 33.402C128.918 31.7678 128.54 29.7642 128.54 27.3913C128.54 24.9538 128.932 22.9272 129.717 21.3114C130.502 19.6864 131.545 18.4723 132.847 17.669C134.158 16.8565 135.594 16.4503 137.154 16.4503C138.345 16.4503 139.338 16.6534 140.132 17.0597C140.935 17.4567 141.581 17.9553 142.07 18.5554C142.569 19.1463 142.948 19.728 143.206 20.3004H143.386V9.63636H149.272V38H143.455V34.593H143.206C142.929 35.1839 142.537 35.7702 142.029 36.3519C141.53 36.9244 140.879 37.3999 140.076 37.7784C139.282 38.157 138.313 38.3462 137.168 38.3462ZM139.037 33.6513C139.988 33.6513 140.792 33.3928 141.447 32.8757C142.112 32.3494 142.62 31.6154 142.971 30.6737C143.331 29.7319 143.511 28.6286 143.511 27.3636C143.511 26.0987 143.335 25 142.985 24.0675C142.634 23.1349 142.126 22.4148 141.461 21.907C140.796 21.3991 139.988 21.1452 139.037 21.1452C138.068 21.1452 137.251 21.4084 136.586 21.9347C135.921 22.4609 135.418 23.1903 135.077 24.1229C134.735 25.0554 134.564 26.1357 134.564 27.3636C134.564 28.6009 134.735 29.695 135.077 30.646C135.427 31.5877 135.931 32.3263 136.586 32.8619C137.251 33.3881 138.068 33.6513 139.037 33.6513ZM157.765 45.9773C157.017 45.9773 156.316 45.9173 155.66 45.7972C155.014 45.6864 154.478 45.5433 154.054 45.3679L155.383 40.9638C156.076 41.1761 156.699 41.2915 157.253 41.31C157.816 41.3285 158.301 41.1992 158.707 40.9222C159.123 40.6452 159.46 40.1744 159.718 39.5096L160.064 38.6094L152.433 16.7273H158.638L163.042 32.3494H163.264L167.709 16.7273H173.955L165.687 40.299C165.29 41.4439 164.75 42.4411 164.067 43.2905C163.393 44.1491 162.539 44.8093 161.505 45.271C160.471 45.7418 159.224 45.9773 157.765 45.9773ZM186.112 38V9.63636H197.468C199.555 9.63636 201.295 9.94567 202.689 10.5643C204.084 11.1829 205.132 12.0415 205.833 13.1403C206.535 14.2298 206.886 15.4854 206.886 16.9073C206.886 18.0153 206.664 18.9893 206.221 19.8295C205.778 20.6605 205.169 21.3437 204.393 21.8793C203.627 22.4055 202.749 22.7795 201.762 23.0011V23.2781C202.842 23.3242 203.853 23.6289 204.795 24.1921C205.746 24.7553 206.517 25.5447 207.107 26.5604C207.698 27.5668 207.994 28.767 207.994 30.1612C207.994 31.6662 207.62 33.0096 206.872 34.1914C206.133 35.364 205.039 36.2919 203.59 36.9751C202.14 37.6584 200.354 38 198.23 38H186.112ZM192.108 33.0973H196.997C198.669 33.0973 199.887 32.7788 200.654 32.1417C201.42 31.4954 201.803 30.6367 201.803 29.5657C201.803 28.7809 201.614 28.0884 201.235 27.4883C200.857 26.8881 200.317 26.4173 199.615 26.0756C198.922 25.734 198.096 25.5632 197.136 25.5632H192.108V33.0973ZM192.108 21.5053H196.554C197.376 21.5053 198.105 21.3622 198.742 21.076C199.389 20.7805 199.896 20.3651 200.266 19.8295C200.644 19.294 200.834 18.6523 200.834 17.9045C200.834 16.8796 200.469 16.0533 199.74 15.4254C199.019 14.7976 197.994 14.4837 196.665 14.4837H192.108V21.5053ZM225.427 28.9425V16.7273H231.327V38H225.662V34.136H225.441C224.96 35.3825 224.162 36.3842 223.045 37.1413C221.937 37.8984 220.584 38.277 218.987 38.277C217.565 38.277 216.314 37.9538 215.234 37.3075C214.153 36.6612 213.309 35.7425 212.699 34.5515C212.099 33.3604 211.794 31.9339 211.785 30.272V16.7273H217.685V29.2195C217.694 30.4751 218.031 31.4677 218.696 32.1971C219.361 32.9265 220.252 33.2912 221.369 33.2912C222.08 33.2912 222.745 33.1296 223.363 32.8065C223.982 32.4741 224.48 31.9847 224.859 31.3384C225.247 30.6921 225.436 29.8935 225.427 28.9425ZM243.885 38.3462C242.269 38.3462 240.805 37.9308 239.494 37.0998C238.192 36.2596 237.158 35.027 236.392 33.402C235.635 31.7678 235.256 29.7642 235.256 27.3913C235.256 24.9538 235.649 22.9272 236.434 21.3114C237.218 19.6864 238.262 18.4723 239.564 17.669C240.875 16.8565 242.31 16.4503 243.871 16.4503C245.062 16.4503 246.054 16.6534 246.848 17.0597C247.652 17.4567 248.298 17.9553 248.787 18.5554C249.286 19.1463 249.664 19.728 249.923 20.3004H250.103V9.63636H255.989V38H250.172V34.593H249.923C249.646 35.1839 249.254 35.7702 248.746 36.3519C248.247 36.9244 247.596 37.3999 246.793 37.7784C245.999 38.157 245.029 38.3462 243.885 38.3462ZM245.754 33.6513C246.705 33.6513 247.509 33.3928 248.164 32.8757C248.829 32.3494 249.337 31.6154 249.688 30.6737C250.048 29.7319 250.228 28.6286 250.228 27.3636C250.228 26.0987 250.052 25 249.701 24.0675C249.35 23.1349 248.843 22.4148 248.178 21.907C247.513 21.3991 246.705 21.1452 245.754 21.1452C244.785 21.1452 243.968 21.4084 243.303 21.9347C242.638 22.4609 242.135 23.1903 241.793 24.1229C241.452 25.0554 241.281 26.1357 241.281 27.3636C241.281 28.6009 241.452 29.695 241.793 30.646C242.144 31.5877 242.647 32.3263 243.303 32.8619C243.968 33.3881 244.785 33.6513 245.754 33.6513ZM268.679 38.3462C267.063 38.3462 265.599 37.9308 264.288 37.0998C262.986 36.2596 261.952 35.027 261.186 33.402C260.429 31.7678 260.05 29.7642 260.05 27.3913C260.05 24.9538 260.443 22.9272 261.228 21.3114C262.012 19.6864 263.056 18.4723 264.358 17.669C265.669 16.8565 267.104 16.4503 268.665 16.4503C269.856 16.4503 270.848 16.6534 271.642 17.0597C272.446 17.4567 273.092 17.9553 273.581 18.5554C274.08 19.1463 274.458 19.728 274.717 20.3004H274.897V9.63636H280.783V38H274.966V34.593H274.717C274.44 35.1839 274.047 35.7702 273.54 36.3519C273.041 36.9244 272.39 37.3999 271.587 37.7784C270.793 38.157 269.823 38.3462 268.679 38.3462ZM270.548 33.6513C271.499 33.6513 272.302 33.3928 272.958 32.8757C273.623 32.3494 274.131 31.6154 274.481 30.6737C274.842 29.7319 275.022 28.6286 275.022 27.3636C275.022 26.0987 274.846 25 274.495 24.0675C274.144 23.1349 273.637 22.4148 272.972 21.907C272.307 21.3991 271.499 21.1452 270.548 21.1452C269.579 21.1452 268.762 21.4084 268.097 21.9347C267.432 22.4609 266.929 23.1903 266.587 24.1229C266.246 25.0554 266.075 26.1357 266.075 27.3636C266.075 28.6009 266.246 29.695 266.587 30.646C266.938 31.5877 267.441 32.3263 268.097 32.8619C268.762 33.3881 269.579 33.6513 270.548 33.6513ZM289.276 45.9773C288.528 45.9773 287.827 45.9173 287.171 45.7972C286.525 45.6864 285.989 45.5433 285.564 45.3679L286.894 40.9638C287.586 41.1761 288.21 41.2915 288.764 41.31C289.327 41.3285 289.812 41.1992 290.218 40.9222C290.633 40.6452 290.97 40.1744 291.229 39.5096L291.575 38.6094L283.944 16.7273H290.149L294.553 32.3494H294.774L299.22 16.7273H305.466L297.198 40.299C296.801 41.4439 296.261 42.4411 295.578 43.2905C294.904 44.1491 294.05 44.8093 293.015 45.271C291.981 45.7418 290.735 45.9773 289.276 45.9773Z" fill="#BEBEBE"/>
</svg>
